<svg xmlns="http://www.w3.org/2000/svg" xmlns:xlink="http://www.w3.org/1999/xlink" width="500" zoomAndPan="magnify" viewBox="0 0 375 374.999991" height="500" preserveAspectRatio="xMidYMid meet" version="1.0"><defs><g/><clipPath id="13a600ac51"><path d="M 49 250 L 326 250 L 326 294.335938 L 49 294.335938 Z M 49 250 " clip-rule="nonzero"/></clipPath><clipPath id="25e5bca83f"><path d="M 67 234.335938 L 188 234.335938 L 188 277 L 67 277 Z M 67 234.335938 " clip-rule="nonzero"/></clipPath><clipPath id="191b4a07c1"><path d="M 187 234.335938 L 308 234.335938 L 308 277 L 187 277 Z M 187 234.335938 " clip-rule="nonzero"/></clipPath><clipPath id="2ebb29d813"><path d="M 253.511719 89.074219 L 267.761719 89.074219 L 267.761719 103.324219 L 253.511719 103.324219 Z M 253.511719 89.074219 " clip-rule="nonzero"/></clipPath><clipPath id="d393ae3652"><path d="M 107.472656 110.191406 L 121.722656 110.191406 L 121.722656 124.441406 L 107.472656 124.441406 Z M 107.472656 110.191406 " clip-rule="nonzero"/></clipPath><clipPath id="82df4ea7e6"><path d="M 55.953125 180.9375 L 70.203125 180.9375 L 70.203125 195.1875 L 55.953125 195.1875 Z M 55.953125 180.9375 " clip-rule="nonzero"/></clipPath><clipPath id="d742c27b96"><path d="M 138.78125 160.347656 L 153.03125 160.347656 L 153.03125 174.597656 L 138.78125 174.597656 Z M 138.78125 160.347656 " clip-rule="nonzero"/></clipPath><clipPath id="5c8c38293f"><path d="M 159.609375 160.347656 L 173.859375 160.347656 L 173.859375 174.597656 L 159.609375 174.597656 Z M 159.609375 160.347656 " clip-rule="nonzero"/></clipPath><clipPath id="35aee81a5c"><path d="M 201.609375 180.9375 L 215.859375 180.9375 L 215.859375 195.1875 L 201.609375 195.1875 Z M 201.609375 180.9375 " clip-rule="nonzero"/></clipPath><clipPath id="425a2b7079"><path d="M 201.609375 201.765625 L 215.859375 201.765625 L 215.859375 216.015625 L 201.609375 216.015625 Z M 201.609375 201.765625 " clip-rule="nonzero"/></clipPath><clipPath id="874e5c31a5"><path d="M 264.664062 160.347656 L 278.914062 160.347656 L 278.914062 174.597656 L 264.664062 174.597656 Z M 264.664062 160.347656 " clip-rule="nonzero"/></clipPath></defs><g clip-path="url(#13a600ac51)"><path fill="#000000" d="M 324.957031 252.609375 C 324.59375 251.160156 323.136719 250.273438 321.691406 250.636719 L 187.425781 284.335938 L 53.160156 250.636719 C 51.714844 250.273438 50.253906 251.160156 49.894531 252.609375 C 49.535156 254.0625 50.410156 255.53125 51.855469 255.894531 L 167.375 284.886719 C 166.695312 285.589844 166.324219 286.339844 166.324219 287.128906 C 166.324219 291.0625 175.769531 294.277344 187.425781 294.277344 C 199.078125 294.277344 208.527344 291.0625 208.527344 287.128906 C 208.527344 286.339844 208.15625 285.589844 207.476562 284.886719 L 322.996094 255.894531 C 324.4375 255.53125 325.316406 254.0625 324.957031 252.609375 Z M 324.957031 252.609375 " fill-opacity="1" fill-rule="nonzero"/></g><path fill="#000000" d="M 120.988281 257.671875 C 130.535156 259.449219 139.972656 261.738281 149.1875 264.742188 C 158.382812 267.800781 167.371094 271.558594 175.816406 276.585938 C 168.164062 270.40625 159.335938 265.660156 150.128906 262.097656 C 140.917969 258.484375 131.320312 256 121.65625 254.125 C 111.96875 252.324219 102.191406 251.136719 92.390625 250.507812 C 82.597656 249.832031 72.777344 249.738281 62.980469 250.101562 C 72.734375 251.144531 82.449219 252.175781 92.132812 253.316406 C 101.808594 254.507812 111.453125 255.835938 120.988281 257.671875 Z M 120.988281 257.671875 " fill-opacity="1" fill-rule="nonzero"/><path fill="#000000" d="M 95.203125 246.589844 C 105.894531 246.914062 116.5625 247.785156 127.015625 249.757812 C 137.476562 251.667969 147.722656 254.707031 157.398438 259.109375 C 167.054688 263.546875 176.132812 269.363281 184.199219 276.585938 C 177.128906 268.378906 168.339844 261.574219 158.621094 256.585938 C 148.917969 251.527344 138.371094 248.234375 127.671875 246.210938 C 116.945312 244.246094 106.046875 243.523438 95.214844 243.769531 C 84.378906 243.976562 73.601562 245.179688 62.980469 247.089844 C 73.761719 246.574219 84.507812 246.320312 95.203125 246.589844 Z M 95.203125 246.589844 " fill-opacity="1" fill-rule="nonzero"/><g clip-path="url(#25e5bca83f)"><path fill="#000000" d="M 134.035156 240.25 C 144.871094 242.332031 155.324219 246.351562 164.476562 252.53125 C 173.625 258.714844 181.375 267.027344 187.425781 276.585938 C 186.101562 274.097656 184.820312 271.554688 183.351562 269.121094 L 180.949219 265.597656 C 180.125 264.4375 179.398438 263.1875 178.429688 262.140625 L 175.628906 258.890625 C 175.15625 258.355469 174.703125 257.796875 174.210938 257.277344 L 172.644531 255.808594 L 169.488281 252.882812 C 168.453125 251.878906 167.21875 251.128906 166.089844 250.242188 C 164.933594 249.394531 163.792969 248.507812 162.613281 247.691406 L 158.882812 245.523438 C 156.449219 243.96875 153.777344 242.902344 151.160156 241.699219 C 150.503906 241.410156 149.855469 241.09375 149.191406 240.824219 L 147.148438 240.144531 L 143.058594 238.792969 C 141.710938 238.285156 140.292969 238.042969 138.90625 237.691406 L 134.722656 236.707031 C 123.464844 234.523438 111.960938 234.34375 100.6875 235.441406 C 89.390625 236.5 78.292969 238.851562 67.472656 241.972656 C 78.605469 240.21875 89.738281 238.828125 100.878906 238.253906 C 112.007812 237.742188 123.195312 238.082031 134.035156 240.25 Z M 134.035156 240.25 " fill-opacity="1" fill-rule="nonzero"/></g><path fill="#000000" d="M 253.195312 254.125 C 243.527344 256 233.929688 258.484375 224.722656 262.097656 C 215.515625 265.660156 206.6875 270.40625 199.03125 276.585938 C 207.476562 271.558594 216.46875 267.800781 225.660156 264.742188 C 234.875 261.738281 244.316406 259.449219 253.863281 257.671875 C 263.398438 255.835938 273.042969 254.507812 282.71875 253.316406 C 292.398438 252.175781 302.117188 251.144531 311.867188 250.101562 C 302.070312 249.738281 292.253906 249.832031 282.457031 250.507812 C 272.660156 251.136719 262.882812 252.324219 253.195312 254.125 Z M 253.195312 254.125 " fill-opacity="1" fill-rule="nonzero"/><path fill="#000000" d="M 279.636719 243.769531 C 268.804688 243.523438 257.90625 244.246094 247.179688 246.210938 C 236.480469 248.234375 225.933594 251.527344 216.230469 256.585938 C 206.507812 261.574219 197.71875 268.378906 190.652344 276.585938 C 198.714844 269.363281 207.796875 263.546875 217.449219 259.109375 C 227.128906 254.707031 237.375 251.667969 247.832031 249.757812 C 258.289062 247.785156 268.953125 246.914062 279.644531 246.589844 C 290.34375 246.320312 301.089844 246.574219 311.867188 247.089844 C 301.25 245.179688 290.472656 243.976562 279.636719 243.769531 Z M 279.636719 243.769531 " fill-opacity="1" fill-rule="nonzero"/><g clip-path="url(#191b4a07c1)"><path fill="#000000" d="M 210.371094 252.53125 C 219.523438 246.351562 229.980469 242.332031 240.816406 240.25 C 251.65625 238.082031 262.839844 237.742188 273.96875 238.253906 C 285.109375 238.828125 296.246094 240.21875 307.378906 241.972656 C 296.554688 238.851562 285.457031 236.5 274.164062 235.441406 C 262.886719 234.34375 251.382812 234.523438 240.128906 236.707031 L 235.945312 237.691406 C 234.554688 238.042969 233.140625 238.285156 231.789062 238.792969 L 227.703125 240.144531 L 225.660156 240.824219 C 224.996094 241.09375 224.34375 241.410156 223.6875 241.699219 C 221.074219 242.902344 218.402344 243.96875 215.964844 245.523438 L 212.238281 247.691406 C 211.054688 248.507812 209.917969 249.394531 208.757812 250.242188 C 207.628906 251.128906 206.398438 251.878906 205.363281 252.882812 L 202.203125 255.808594 L 200.640625 257.277344 C 200.148438 257.796875 199.695312 258.355469 199.21875 258.890625 L 196.421875 262.140625 C 195.449219 263.1875 194.726562 264.4375 193.902344 265.597656 L 191.496094 269.121094 C 190.03125 271.554688 188.75 274.097656 187.425781 276.585938 C 193.476562 267.027344 201.226562 258.714844 210.371094 252.53125 Z M 210.371094 252.53125 " fill-opacity="1" fill-rule="nonzero"/></g><g fill="#000000" fill-opacity="1"><g transform="translate(83.238338, 145.64659)"><g><path d="M 38.28125 -55.53125 L 38.28125 -41.6875 L 17.359375 -41.6875 L 17.359375 -13.84375 L 45.203125 -13.84375 L 45.203125 -34.703125 L 59.046875 -34.703125 L 59.046875 0 L 3.515625 0 L 3.515625 -55.53125 Z M 38.234375 -34.703125 L 38.234375 -20.875 L 24.328125 -20.875 L 24.328125 -34.703125 Z M 38.234375 -34.703125 "/></g></g></g><g fill="#000000" fill-opacity="1"><g transform="translate(142.265599, 145.64659)"><g><path d="M 83.4375 -55.53125 L 83.4375 0 L 7.03125 0 L 7.03125 -20.875 L -3.515625 -20.875 L -3.515625 -34.703125 L 20.875 -34.703125 L 20.875 -13.84375 L 27.90625 -13.84375 L 27.90625 -34.703125 L 48.78125 -34.703125 L 48.78125 -55.53125 Z M 69.59375 -41.6875 L 62.625 -41.6875 L 62.625 -20.875 L 41.75 -20.875 L 41.75 -13.84375 L 69.59375 -13.84375 Z M 69.59375 -41.6875 "/></g></g></g><g fill="#000000" fill-opacity="1"><g transform="translate(225.677505, 145.64659)"><g><path d="M 41.75 -55.53125 L 41.75 -41.6875 L 27.90625 -41.6875 L 27.90625 -55.53125 Z M 62.5625 -34.703125 L 62.5625 -20.875 L 41.75 -20.875 L 41.75 -13.84375 L 62.5625 -13.84375 L 62.5625 0 L 7.03125 0 L 7.03125 -20.875 L -3.515625 -20.875 L -3.515625 -34.703125 L 20.875 -34.703125 L 20.875 -13.84375 L 27.90625 -13.84375 L 27.90625 -34.703125 Z M 62.5625 -34.703125 "/></g></g></g><g fill="#000000" fill-opacity="1"><g transform="translate(31.438427, 215.467558)"><g><path d="M 59.046875 -55.53125 L 59.046875 0 L 3.515625 0 L 3.515625 -55.53125 L 27.796875 -55.53125 L 27.796875 -41.6875 L 17.359375 -41.6875 L 17.359375 -13.84375 L 45.203125 -13.84375 L 45.203125 -41.6875 L 34.828125 -41.6875 L 34.828125 -55.53125 Z M 38.234375 -34.703125 L 38.234375 -20.9375 L 24.390625 -20.9375 L 24.390625 -34.703125 Z M 38.234375 -34.703125 "/></g></g></g><g fill="#000000" fill-opacity="1"><g transform="translate(93.982705, 215.467558)"><g><path d="M 38.234375 -55.53125 L 38.234375 0 L 3.515625 0 L 3.515625 -13.84375 L 24.328125 -13.84375 L 24.328125 -20.875 L 3.515625 -20.875 L 3.515625 -55.53125 Z M 24.328125 -41.6875 L 17.359375 -41.6875 L 17.359375 -34.703125 L 24.328125 -34.703125 Z M 24.328125 -41.6875 "/></g></g></g><g fill="#000000" fill-opacity="1"><g transform="translate(132.200945, 215.467558)"><g><path d="M 20.875 -55.53125 L 20.875 -41.6875 L 7.03125 -41.6875 L 7.03125 -55.53125 Z M 41.6875 -55.53125 L 41.6875 -41.6875 L 27.90625 -41.6875 L 27.90625 -55.53125 Z M 41.6875 -34.703125 L 41.6875 0 L 7.03125 0 L 7.03125 -20.875 L -3.515625 -20.875 L -3.515625 -34.703125 L 20.875 -34.703125 L 20.875 -13.84375 L 27.90625 -13.84375 L 27.90625 -34.703125 Z M 41.6875 -34.703125 "/></g></g></g><g fill="#000000" fill-opacity="1"><g transform="translate(173.877593, 215.467558)"><g><path d="M 62.5 -55.53125 L 62.5 0 L 48.671875 0 L 48.671875 -41.6875 L 20.8125 -41.6875 L 20.8125 -20.875 L -3.515625 -20.875 L -3.515625 -34.703125 L 7.03125 -34.703125 L 7.03125 -55.53125 Z M 41.625 -34.703125 L 41.625 -20.875 L 27.84375 -20.875 L 27.84375 -34.703125 Z M 41.6875 -13.84375 L 41.6875 0 L 27.84375 0 L 27.84375 -13.84375 Z M 41.6875 -13.84375 "/></g></g></g><g fill="#000000" fill-opacity="1"><g transform="translate(239.880258, 215.467558)"><g><path d="M 38.234375 -55.53125 L 38.234375 -41.6875 L 24.390625 -41.6875 L 24.390625 -55.53125 Z M 38.234375 -34.65625 L 38.234375 0 L 3.515625 0 L 3.515625 -13.84375 L 24.390625 -13.84375 L 24.390625 -34.65625 Z M 38.234375 -34.65625 "/></g></g></g><g fill="#000000" fill-opacity="1"><g transform="translate(278.098498, 215.467558)"><g><path d="M 41.6875 -55.53125 L 41.6875 0 L 7.03125 0 L 7.03125 -20.875 L -3.515625 -20.875 L -3.515625 -34.65625 L 20.875 -34.65625 L 20.875 -13.84375 L 27.90625 -13.84375 L 27.90625 -55.53125 Z M 41.6875 -55.53125 "/></g></g></g><g fill="#000000" fill-opacity="1"><g transform="translate(323.292164, 215.467558)"><g><path d="M 17.296875 -55.53125 L 17.296875 0 L 3.515625 0 L 3.515625 -55.53125 Z M 17.296875 -55.53125 "/></g></g></g><g clip-path="url(#2ebb29d813)"><path fill="#a5960a" d="M 267.492188 103.039062 L 253.511719 103.039062 L 253.511719 89.085938 L 267.492188 89.085938 Z M 267.492188 103.039062 " fill-opacity="1" fill-rule="nonzero"/></g><g clip-path="url(#d393ae3652)"><path fill="#a5960a" d="M 121.863281 124.566406 L 107.472656 124.566406 L 107.472656 110.203125 L 121.863281 110.203125 Z M 121.863281 124.566406 " fill-opacity="1" fill-rule="nonzero"/></g><g clip-path="url(#82df4ea7e6)"><path fill="#a5960a" d="M 70.34375 195.3125 L 55.953125 195.3125 L 55.953125 180.949219 L 70.34375 180.949219 Z M 70.34375 195.3125 " fill-opacity="1" fill-rule="nonzero"/></g><g clip-path="url(#d742c27b96)"><path fill="#a5960a" d="M 153.171875 174.726562 L 138.78125 174.726562 L 138.78125 160.363281 L 153.171875 160.363281 Z M 153.171875 174.726562 " fill-opacity="1" fill-rule="nonzero"/></g><g clip-path="url(#5c8c38293f)"><path fill="#a5960a" d="M 174 174.726562 L 159.609375 174.726562 L 159.609375 160.363281 L 174 160.363281 Z M 174 174.726562 " fill-opacity="1" fill-rule="nonzero"/></g><g clip-path="url(#35aee81a5c)"><path fill="#a5960a" d="M 216 195.3125 L 201.609375 195.3125 L 201.609375 180.949219 L 216 180.949219 Z M 216 195.3125 " fill-opacity="1" fill-rule="nonzero"/></g><g clip-path="url(#425a2b7079)"><path fill="#a5960a" d="M 216 216.140625 L 201.609375 216.140625 L 201.609375 201.777344 L 216 201.777344 Z M 216 216.140625 " fill-opacity="1" fill-rule="nonzero"/></g><g clip-path="url(#874e5c31a5)"><path fill="#a5960a" d="M 279.054688 174.726562 L 264.664062 174.726562 L 264.664062 160.363281 L 279.054688 160.363281 Z M 279.054688 174.726562 " fill-opacity="1" fill-rule="nonzero"/></g></svg>